<svg id="Layer_1" data-name="Layer 1" xmlns="http://www.w3.org/2000/svg" viewBox="0 0 512 512"><defs><style>.cls-1{fill:#24282c;}.cls-2{fill:#f9f9f9;stroke:#000;stroke-miterlimit:10;}</style></defs><title>yb-svg</title><rect class="cls-1" width="512" height="512"/><path class="cls-2" d="M139.87,238.28l33.51-82.67h36.69L156.79,278.25v78.14H123V279.62l-53.28-124h36.91Z" transform="translate(0 0)"/><path class="cls-2" d="M301.92,155.61,242,356.39H211.62l59.88-200.78Z" transform="translate(0 0)"/><path class="cls-2" d="M323.24,155.61h50q34.17,0,49.6,12.15t15.44,38.66q0,18-6.76,29.53t-18,13.87v1.37q15.27,4.26,22,15.93t6.76,31q0,27.47-15.87,42.85t-43.12,15.38h-60.1Zm34.06,79.51h19.78q13.84,0,20-5.36t6.21-17.72q0-11.54-6.76-16.55t-21.37-5H357.29Zm0,33.78v52.32h22.19q14.06,0,20.76-6.73t6.7-20.6q0-25-28.56-25Z" transform="translate(0 0)"/></svg>